<svg width="251" height="275" viewBox="0 0 251 275" fill="none" xmlns="http://www.w3.org/2000/svg">
<g clip-path="url(#clip0_66_36)">
<path d="M38.4404 2H212.03C231.9 2 248.03 18.13 248.03 38V141.29H2.44043V38C2.44043 18.13 18.5704 2 38.4404 2Z" stroke="#B6D135" stroke-width="4.87" stroke-miterlimit="10"/>
<path d="M0 141.31H250.47V237.59C250.47 257.46 234.34 273.59 214.47 273.59H36C16.13 273.59 0 257.46 0 237.59V141.31Z" fill="#B6D135"/>
<path d="M92.1602 26H108.36C122.38 27.21 118.3 41.98 118.89 51.69C118.58 56.3 115.65 60.35 111.12 61.54L120.61 83.28H108.35L98.9902 62.1H92.3402L92.1602 61.92V51.39H105.4C105.49 51.39 106.15 51.12 106.29 51.05C107.05 50.62 107.37 49.83 107.44 49C107.71 45.82 107.24 42.25 107.42 39.03C107.47 38.21 106.29 36.86 105.52 36.86H92.3402L92.1602 36.68V26.03V26Z" fill="#244540"/>
<path d="M40 26H56.82C62.79 26.37 67.01 30.54 67.35 36.52V72.87C66.98 78.72 62.77 82.88 56.94 83.28H40V72.62L40.18 72.44H53.98C54.5 72.44 55.66 71.46 55.73 70.87C56.1 60.32 55.79 49.7 55.89 39.13C55.81 38.36 55.48 37.67 54.82 37.24C54.71 37.17 54.03 36.85 53.98 36.85H40.18L40 36.67V26.02V26Z" fill="#244540"/>
<path d="M137.06 26L151.72 83.27H141.37L124 26H137.06Z" fill="#244540"/>
<path d="M37.46 26H26V83.27H37.46V26Z" fill="#244540"/>
<path d="M89.8204 26H78.3604V83.27H89.8204V26Z" fill="#244540"/>
<path d="M223.1 83.27H211.83L180.97 26H192.25L223.1 83.27Z" fill="#244540"/>
<path d="M172.35 26L154.8 83.28C154.55 83.28 154.23 83.34 154.14 83.06L149.45 64.87L159.73 26H172.36H172.35Z" fill="#244540"/>
<path d="M190.71 83.27H179.99V28.83L190.71 48.6V83.27Z" fill="#244540"/>
<path d="M224.09 26V80.32L223.58 79.54L213.37 60.55V26H224.09Z" fill="#244540"/>
<path d="M28.0902 106.58C29.3502 104.88 30.9002 103.56 32.7402 102.62C34.5802 101.67 36.5402 101.2 38.6202 101.2C41.0502 101.2 43.0802 101.82 44.7102 103.07C46.3302 104.32 47.3102 106.05 47.6402 108.25H42.6102C42.2802 107.25 41.7002 106.5 40.8902 105.99C40.0802 105.48 39.0802 105.22 37.8902 105.22C36.6202 105.22 35.4402 105.51 34.3502 106.09C33.2602 106.67 32.3402 107.51 31.6002 108.59C30.8602 109.67 30.3702 110.92 30.1202 112.34C30.0202 113.01 29.9602 113.56 29.9602 113.99C29.9602 115.68 30.4402 117.01 31.4102 117.98C32.3802 118.95 33.6902 119.45 35.3602 119.45C36.5502 119.45 37.6402 119.19 38.6402 118.67C39.6402 118.15 40.4802 117.39 41.1702 116.39H46.2002C45.0802 118.62 43.4902 120.35 41.4402 121.59C39.3902 122.83 37.1502 123.45 34.7102 123.45C32.8802 123.45 31.2602 123.08 29.8602 122.34C28.4602 121.6 27.3702 120.56 26.6002 119.2C25.8302 117.84 25.4502 116.3 25.4502 114.55C25.4502 113.82 25.5102 113.08 25.6402 112.33C26.0102 110.19 26.8302 108.27 28.0902 106.57V106.58Z" fill="#244540"/>
<path d="M62.5902 104.88L61.5902 110.53H68.9302L68.3402 113.9H61.0002L59.9702 119.8H68.2402L67.6202 123.26H54.9502L58.8202 101.44H71.4602L70.8702 104.87H62.6002L62.5902 104.88Z" fill="#244540"/>
<path d="M94.9 102.99C96.04 104 96.62 105.32 96.62 106.94C96.62 107.34 96.59 107.74 96.53 108.16C96.28 109.58 95.64 110.86 94.61 112.02C93.58 113.17 92.2 113.98 90.47 114.44L94.12 123.27H89.03L85.78 114.78H83.69L82.19 123.27H77.79L81.66 101.48H89.84C92.07 101.48 93.75 101.98 94.9 102.99ZM92.09 107.5C92.09 106.71 91.84 106.1 91.34 105.66C90.84 105.22 90.08 105.01 89.06 105.01H85.41L84.26 111.53H87.91C89.08 111.53 90.01 111.24 90.7 110.66C91.39 110.08 91.84 109.28 92.03 108.26C92.07 107.89 92.09 107.64 92.09 107.51V107.5Z" fill="#244540"/>
<path d="M122.741 101.47L122.121 104.9H116.351L113.101 123.25H108.701L111.951 104.9H106.141L106.761 101.47H122.741Z" fill="#244540"/>
<path d="M136.54 101.47L132.7 123.26H128.3L132.17 101.47H136.54Z" fill="#244540"/>
<path d="M160.54 101.47L159.92 104.9H150.87L149.87 110.61H156.8L156.21 113.98H149.25L147.63 123.25H143.23L147.1 101.46H160.55L160.54 101.47Z" fill="#244540"/>
<path d="M174.24 101.47L170.4 123.26H166L169.87 101.47H174.24Z" fill="#244540"/>
<path d="M188.571 104.88L187.571 110.53H194.911L194.321 113.9H186.981L185.951 119.8H194.221L193.601 123.26H180.931L184.801 101.44H197.441L196.851 104.87H188.581L188.571 104.88Z" fill="#244540"/>
<path d="M220.48 102.52C221.95 103.22 223.07 104.21 223.85 105.5C224.63 106.79 225.02 108.32 225.02 110.09C225.02 110.88 224.95 111.65 224.8 112.4C224.43 114.58 223.62 116.49 222.38 118.13C221.14 119.76 219.58 121.03 217.68 121.92C215.79 122.81 213.68 123.26 211.37 123.26H203.75L207.62 101.47H215.24C217.26 101.47 219 101.82 220.47 102.52H220.48ZM217.52 117.77C218.99 116.48 219.93 114.69 220.34 112.4C220.44 111.71 220.5 111.12 220.5 110.62C220.5 108.87 219.98 107.52 218.96 106.56C217.93 105.6 216.43 105.12 214.45 105.12H211.39L208.83 119.7H211.89C214.18 119.7 216.06 119.06 217.52 117.76V117.77Z" fill="#244540"/>
<path d="M193.93 164.21H180.35C172.06 164.73 165.74 170.47 164.54 178.74L160.15 228.9C159.96 236.98 165.26 242.71 173.26 243.26H187.01L188.3 228.55L188.07 228.3H178.66C177.94 228.3 176.46 226.95 176.43 226.13C177.2 211.58 178.91 196.92 180.05 182.32C180.25 181.26 180.79 180.3 181.75 179.71C181.91 179.61 182.88 179.17 182.96 179.17H192.37L192.65 178.92L193.94 164.22L193.93 164.21Z" fill="#244540"/>
<path d="M196.93 164.24H210.51C218.71 164.76 224.021 170.5 223.781 178.77L219.391 228.93C218.171 237.01 211.871 242.74 203.771 243.29H190.021L191.311 228.58L191.59 228.33H201.001C201.721 228.33 203.441 226.98 203.611 226.16C205.391 211.61 206.241 196.95 207.661 182.35C207.641 181.29 207.271 180.33 206.421 179.74C206.281 179.64 205.381 179.2 205.301 179.2H195.891L195.661 178.95L196.951 164.25L196.93 164.24Z" fill="#244540"/>
<path d="M119.78 164.19H142.14C161.34 165.86 153.92 186.24 153.57 199.64C152.59 206 148.05 211.59 141.66 213.23L152.13 243.23H135.21L124.85 213.99H115.67L115.44 213.74L116.71 199.21H134.99C135.12 199.21 136.06 198.84 136.26 198.74C137.36 198.14 137.89 197.06 138.09 195.91C138.85 191.53 138.63 186.6 139.27 182.15C139.44 181.02 137.98 179.16 136.92 179.16H118.73L118.5 178.91L119.79 164.21L119.78 164.19Z" fill="#244540"/>
<path d="M116.55 164.19L109.64 243.23H93.8301L100.74 164.19H116.55Z" fill="#244540"/>
<path d="M51.3401 164.25L44.4301 243.29H28.6201L35.5301 164.25H51.3401Z" fill="#244540"/>
<path d="M59.5604 213.99H50.3804L50.1504 213.74L51.4204 199.21H69.7004C69.8304 199.21 70.7704 198.84 70.9704 198.74C72.0704 198.14 72.6004 197.06 72.8004 195.91C73.5604 191.53 73.3404 186.6 73.9804 182.15C74.1504 181.02 72.6904 179.16 71.6304 179.16H53.4404L53.2104 178.91L54.5004 164.21H76.8604C96.0604 165.88 88.6404 186.26 88.2904 199.66C87.3104 206.02 81.2004 212.74 74.7204 213.71C70.5204 214.34 59.5704 214.01 59.5704 214.01L59.5604 213.99Z" fill="#244540"/>
</g>
<defs>
<clipPath id="clip0_66_36">
<rect width="250.47" height="274.03" fill="white"/>
</clipPath>
</defs>
</svg>
