<svg width="432" height="94" viewBox="0 0 432 94" fill="none" xmlns="http://www.w3.org/2000/svg">
<path d="M138.017 7.28125V7.80385C137.048 7.80385 135.802 8.1174 135.283 9.75487L129.85 26.5128C128.985 29.2303 128.258 30.1361 126.113 30.1361C123.517 30.1361 122.168 28.4638 122.479 26.1296L124.728 26.4083C124.521 28.4638 125.49 29.0909 126.32 29.0909C127.462 29.0909 127.843 28.3942 128.466 26.5128L129.573 23.0288H128.223L123.932 9.75487C123.413 8.1174 122.133 7.80385 121.164 7.80385V7.28125H125.524L130.092 21.4262L133.864 9.75487C134.383 8.1174 133.033 7.80385 131.442 7.80385V7.28125H138.017Z" fill="white"/>
<path d="M119.601 0.835938V20.4507C119.601 22.123 120.57 22.5063 121.539 22.5063V23.0289H115.379V22.5063C116.348 22.5063 117.351 22.123 117.351 20.4507V3.41408C117.351 1.74177 116.348 1.35853 115.379 1.35853V0.835938H119.601Z" fill="white"/>
<path d="M112.66 12.3679V20.4508C112.66 22.1231 113.629 22.5063 114.598 22.5063V23.0289H108.404V22.5063C109.338 22.5063 110.376 22.1231 110.376 20.4508V12.7512C110.376 9.65044 109.649 8.18717 107.504 8.18717C105.185 8.18717 103.144 10.4517 103.144 16.7577V20.4508C103.144 22.1231 104.113 22.5063 105.082 22.5063V23.0289H98.9219V22.5063C99.8562 22.5063 100.894 22.1231 100.894 20.4508V9.85947C100.894 8.18716 99.8562 7.80393 98.9219 7.80393V7.28133H103.144V11.4969H103.247C103.628 9.30204 105.289 6.96777 108.231 6.96777C111.241 6.96777 112.66 8.95364 112.66 12.3679Z" fill="white"/>
<path d="M95.2146 4.28529L93.1037 2.12523L95.2146 0L97.3255 2.12523L95.2146 4.28529ZM96.3911 7.28151V20.4509C96.3911 22.1233 97.3601 22.5065 98.329 22.5065V23.0291H92.1348V22.5065C93.1037 22.5065 94.1072 22.1233 94.1072 20.4509V9.85966C94.1072 8.18735 93.1037 7.80411 92.1348 7.80411V7.28151H96.3911Z" fill="white"/>
<path d="M89.2662 14.4583V20.4508C89.2662 22.1231 90.2351 22.5063 91.204 22.5063V23.0289H87.1553V18.1862H87.0169C86.4632 20.4856 85.1828 23.2728 81.8261 23.2728C79.3346 23.2728 77.5352 21.7747 77.5352 17.8378C77.5352 17.0016 77.639 16.0261 77.812 15.0506L87.1207 14.1448V13.3435C87.1207 10.626 86.394 8.11749 83.3142 8.11749C80.961 8.11749 79.9575 9.54592 79.9575 10.9395C79.9575 11.6015 80.1651 12.1589 80.4766 12.3679V12.5073L78.0888 12.7512C77.9504 12.3679 77.8466 11.8802 77.8466 11.3576C77.8466 9.23236 79.4384 6.96777 83.4872 6.96777C88.9547 6.96777 89.2662 11.2531 89.2662 14.4583ZM82.6221 21.8095C85.6327 21.8095 86.8092 18.2559 87.0515 14.8067L80.0267 15.9564C79.8537 16.6532 79.8191 17.35 79.8191 18.012C79.8191 20.4159 80.615 21.8095 82.6221 21.8095Z" fill="white"/>
<path d="M76.1193 7.28186V8.67546H70.8594V18.6745C70.8594 20.8694 71.7937 21.7404 73.3163 21.7404C75.2542 21.7404 75.6695 20.0681 75.7041 19.7545H76.1193C76.0847 20.1726 75.8771 23.2733 72.5204 23.2733C69.8213 23.2733 68.5755 21.601 68.5755 18.779V8.67546H66.3262V7.73478C68.8869 7.21218 70.0289 5.60956 70.3057 2.4043H70.8594V7.80446L73.1433 7.28186H76.1193Z" fill="white"/>
<path d="M62.74 7.07227C63.9165 7.07227 64.9201 7.56002 65.3007 8.18714L64.3664 10.8698L64.1588 10.8001C64.228 9.82461 63.5359 8.91877 62.0825 8.91877C59.937 8.91877 57.9991 11.0788 57.9991 18.3604V20.4507C57.9991 22.123 58.9681 22.5063 59.937 22.5063V23.0289H53.7773V22.5063C54.7117 22.5063 55.7498 22.123 55.7498 20.4507V9.85945C55.7498 8.18714 54.7117 7.8039 53.7773 7.8039V7.2813H57.9991V12.8905H58.1029C58.449 10.4866 59.7986 7.07227 62.74 7.07227Z" fill="white"/>
<path d="M52.0319 18.2559L52.4818 18.3604C52.2396 19.5101 51.0284 23.2728 46.4952 23.2728C41.9619 23.2728 39.5742 20.2417 39.5742 15.0506C39.5742 9.7898 42.2734 6.96777 46.4606 6.96777C50.6131 6.96777 52.2742 9.58076 52.2742 13.0299C52.2742 13.6918 52.205 14.319 52.1357 15.0158L41.9619 15.0854C42.1004 19.5101 43.969 21.8792 47.1181 21.8792C50.5785 21.8792 51.7551 19.1617 52.0319 18.2559ZM46.3914 8.11749C44.1767 8.11749 42.0312 9.72012 41.9619 14.3538L49.6788 13.866C49.8172 13.3783 49.8864 12.8209 49.8864 12.2286C49.8864 10.1382 48.7791 8.11749 46.3914 8.11749Z" fill="white"/>
<path d="M38.0018 13.2738L35.3719 12.9951C35.4757 12.5073 35.5449 11.8802 35.5449 11.4273C35.5449 9.40656 34.4029 8.11749 32.3959 8.11749C29.5237 8.11749 27.7588 10.6956 27.7588 14.5977C27.7242 19.4056 29.8351 21.914 32.8803 21.914C35.9255 21.914 37.2751 19.5798 37.7942 17.8726L38.2441 18.012C37.8288 19.963 36.41 23.2728 32.3959 23.2728C28.0011 23.2728 25.3711 20.4508 25.3711 15.0854C25.3711 9.6156 28.3817 6.96777 32.4997 6.96777C35.9948 6.96777 38.1056 9.12784 38.1056 12.1589C38.1056 12.5073 38.071 12.8905 38.0018 13.2738Z" fill="white"/>
<ellipse cx="5.07411" cy="9.19549" rx="5.07411" ry="5.10857" fill="white"/>
<ellipse cx="15.2225" cy="9.19549" rx="5.07411" ry="5.10857" fill="white"/>
<ellipse cx="5.07411" cy="19.4123" rx="5.07411" ry="5.10857" fill="white"/>
<ellipse cx="15.2225" cy="19.4123" rx="5.07411" ry="5.10857" fill="white"/>
<path d="M5.46505 85.3574V38.2983H14.8096L29.8013 75.6767L44.793 38.2983H54.1376V85.3574H45.5325V56.5841C44.7258 59.6766 43.9639 62.0744 43.2468 63.7775L34.0366 85.3574H25.566L16.3559 63.7775C15.6388 62.0744 14.8769 59.6766 14.0701 56.5841V85.3574H5.46505ZM93.7518 70.7019H67.9365C68.3847 73.3013 69.4379 75.3406 71.0962 76.8196C72.7993 78.2986 74.9058 79.0381 77.4156 79.0381C79.4772 79.0381 81.2251 78.5226 82.6593 77.4918C84.1383 76.461 85.3932 74.9372 86.424 72.9204L92.7434 76.5506C91.2644 79.6879 89.2252 82.1081 86.6257 83.8112C84.0263 85.4695 80.9786 86.2986 77.4828 86.2986C73.8973 86.2986 70.7601 85.4919 68.071 83.8784C65.4267 82.2201 63.4099 80.0465 62.0205 77.3574C60.6312 74.6683 59.9365 71.7551 59.9365 68.6178C59.9365 65.2116 60.7208 62.1864 62.2894 59.5421C63.8581 56.8531 65.9645 54.769 68.6088 53.29C71.2979 51.811 74.2559 51.0715 77.4828 51.0715C80.6201 51.0715 83.4212 51.7886 85.8862 53.2228C88.3512 54.6121 90.2784 56.5841 91.6678 59.1388C93.0571 61.6486 93.7518 64.517 93.7518 67.7439V70.7019ZM85.8862 64.2481C85.4828 62.1416 84.5193 60.5057 82.9954 59.3405C81.4716 58.1304 79.5444 57.5253 77.2139 57.5253C74.9282 57.5253 73.001 58.1304 71.4323 59.3405C69.9085 60.5057 68.8329 62.1416 68.2054 64.2481H85.8862ZM112.067 86.2986C108.84 86.2986 106.24 85.4919 104.268 83.8784C102.341 82.2201 101.377 79.4862 101.377 75.6767V58.8699H96.2009V52.0127H101.377V43.0042H109.848V52.0127H117.109V58.8699H109.848V74.0632C109.848 77.2005 111.26 78.7691 114.083 78.7691C115.069 78.7691 116.011 78.6347 116.907 78.3658L117.714 85.3574C116.011 85.9849 114.128 86.2986 112.067 86.2986ZM122.565 85.3574V38.2983H131.036V57.2564C132.291 55.2844 133.926 53.7606 135.943 52.685C137.96 51.6093 140.179 51.0715 142.599 51.0715C146.229 51.0715 149.097 52.1471 151.204 54.2984C153.355 56.4049 154.431 59.2508 154.431 62.8363V85.3574H145.96V66.1304C145.96 63.8895 145.377 62.1416 144.212 60.8867C143.092 59.6318 141.433 59.0043 139.237 59.0043C136.862 59.0043 134.89 59.8783 133.321 61.6262C131.798 63.3741 131.036 65.6374 131.036 68.4161V85.3574H122.565ZM177.743 86.2986C174.606 86.2986 171.626 85.6263 168.802 84.2818C166.023 82.9372 163.782 80.9428 162.079 78.2986C160.376 75.6095 159.525 72.405 159.525 68.6851C159.525 64.9651 160.376 61.7831 162.079 59.1388C163.782 56.4497 166.023 54.4329 168.802 53.0883C171.626 51.7438 174.606 51.0715 177.743 51.0715C180.881 51.0715 183.839 51.7438 186.617 53.0883C189.441 54.4329 191.704 56.4497 193.407 59.1388C195.11 61.7831 195.962 64.9651 195.962 68.6851C195.962 72.405 195.11 75.6095 193.407 78.2986C191.704 80.9428 189.441 82.9372 186.617 84.2818C183.839 85.6263 180.881 86.2986 177.743 86.2986ZM177.743 78.3658C179.446 78.3658 181.015 77.9848 182.449 77.2229C183.928 76.4162 185.116 75.2957 186.012 73.8616C186.909 72.3826 187.357 70.6571 187.357 68.6851C187.357 66.7131 186.909 65.01 186.012 63.5758C185.116 62.0968 183.928 60.9763 182.449 60.2144C181.015 59.4077 179.446 59.0043 177.743 59.0043C176.04 59.0043 174.449 59.4077 172.97 60.2144C171.536 60.9763 170.371 62.0968 169.474 63.5758C168.578 65.01 168.13 66.7131 168.13 68.6851C168.13 70.6571 168.578 72.3826 169.474 73.8616C170.371 75.2957 171.536 76.4162 172.97 77.2229C174.449 77.9848 176.04 78.3658 177.743 78.3658ZM216.083 86.2986C213.036 86.2986 210.257 85.6039 207.747 84.2146C205.282 82.7804 203.31 80.7411 201.831 78.0969C200.397 75.4078 199.68 72.2705 199.68 68.6851C199.68 65.1444 200.442 62.052 201.966 59.4077C203.534 56.7186 205.574 54.657 208.083 53.2228C210.638 51.7886 213.305 51.0715 216.083 51.0715C218.504 51.0715 220.61 51.5197 222.403 52.4161C224.24 53.3124 225.63 54.5449 226.571 56.1136V38.2983H235.041V85.3574H226.571V80.6515C225.63 82.3098 224.24 83.6767 222.403 84.7524C220.61 85.7832 218.504 86.2986 216.083 86.2986ZM217.697 78.3658C220.386 78.3658 222.627 77.4694 224.42 75.6767C226.212 73.8391 227.109 71.5086 227.109 68.6851C227.109 65.8615 226.212 63.5534 224.42 61.7606C222.627 59.9231 220.386 59.0043 217.697 59.0043C215.008 59.0043 212.767 59.9231 210.974 61.7606C209.181 63.5534 208.285 65.8615 208.285 68.6851C208.285 71.5086 209.181 73.8391 210.974 75.6767C212.767 77.4694 215.008 78.3658 217.697 78.3658ZM293.354 85.3574H260.816V38.2983H269.69V77.1557H293.354V85.3574ZM309.129 86.2986C305.813 86.2986 303.101 85.3574 300.995 83.4751C298.933 81.5479 297.902 79.0156 297.902 75.8784C297.902 72.6963 299 70.2089 301.196 68.4161C303.437 66.5786 306.306 65.3909 309.801 64.8531L319.818 63.3069V62.0296C319.818 60.4161 319.303 59.1836 318.272 58.3321C317.241 57.4357 315.717 56.9875 313.701 56.9875C311.818 56.9875 310.339 57.3461 309.264 58.0631C308.233 58.7802 307.717 59.6766 307.717 60.7522C307.717 61.0211 307.762 61.2901 307.852 61.559L300.255 64.1136C299.852 63.2172 299.65 62.2761 299.65 61.2901C299.65 59.5421 300.21 57.8839 301.331 56.3152C302.451 54.7466 304.065 53.4917 306.171 52.5505C308.322 51.5645 310.832 51.0715 313.701 51.0715C318.451 51.0715 322.059 52.0799 324.524 54.0967C327.034 56.1136 328.289 59.1388 328.289 63.1724V77.0885C328.289 78.9708 328.446 80.5171 328.759 81.7271C329.118 82.9372 329.701 84.1473 330.507 85.3574H321.902C321.499 84.8644 321.118 84.1697 320.759 83.2734C320.446 82.377 320.289 81.3014 320.289 80.0465C319.124 82.1081 317.577 83.6767 315.65 84.7524C313.723 85.7832 311.549 86.2986 309.129 86.2986ZM311.146 79.4414C313.701 79.4414 315.785 78.6123 317.398 76.954C319.011 75.2509 319.818 72.8531 319.818 69.7607V69.1556L311.751 70.5002C308.031 71.1276 306.171 72.7635 306.171 75.4078C306.171 76.7075 306.619 77.7159 307.516 78.433C308.412 79.1053 309.622 79.4414 311.146 79.4414ZM354.691 86.2986C352.226 86.2986 350.075 85.8504 348.237 84.9541C346.445 84.0129 344.988 82.7804 343.868 81.2566V85.3574H335.397V38.2983H343.868V56.1136C345.123 54.5449 346.714 53.3124 348.641 52.4161C350.568 51.5197 352.63 51.0715 354.826 51.0715C357.829 51.0715 360.54 51.7886 362.96 53.2228C365.38 54.6121 367.285 56.6514 368.675 59.3405C370.064 61.9847 370.759 65.0996 370.759 68.6851C370.759 72.2705 370.042 75.4078 368.607 78.0969C367.173 80.7411 365.224 82.7804 362.759 84.2146C360.338 85.6039 357.649 86.2986 354.691 86.2986ZM352.742 78.3658C355.476 78.3658 357.717 77.4694 359.464 75.6767C361.257 73.8391 362.154 71.5086 362.154 68.6851C362.154 65.8615 361.257 63.5534 359.464 61.7606C357.717 59.9231 355.476 59.0043 352.742 59.0043C350.008 59.0043 347.744 59.9231 345.952 61.7606C344.204 63.5534 343.33 65.8615 343.33 68.6851C343.33 71.5086 344.204 73.8391 345.952 75.6767C347.744 77.4694 350.008 78.3658 352.742 78.3658Z" fill="white"/>
</svg>
