<svg width="64" height="64" viewBox="0 0 64 64" fill="none" xmlns="http://www.w3.org/2000/svg">
<g opacity="1">
<path d="M32 0C14.3266 0 0 14.3266 0 32C0 49.6734 14.3266 64 32 64C49.6734 64 64 49.6734 64 32C64 14.3266 49.6734 0 32 0ZM32 62.7965C14.9932 62.7965 1.20353 49.0068 1.20353 32C1.20353 14.9932 14.9932 1.20353 32 1.20353C49.0068 1.20353 62.7918 14.9886 62.7918 31.9954C62.7918 49.0068 49.0068 62.7965 32 62.7965Z" fill="#B0B0B0"/>
<path d="M22.2791 10.9195C22.5291 10.8131 23.1586 10.5446 23.1586 10.5446C23.3623 10.4566 23.4919 10.3502 23.5428 10.2206L23.5058 9.80395L23.2234 9.49844C23.0892 9.44752 22.9272 9.45678 22.7467 9.53547C22.7467 9.53547 22.0338 9.84098 21.8486 9.91968C21.9273 10.0909 22.2051 10.7483 22.2791 10.9195Z" fill="#B0B0B0"/>
<path d="M8.56857 22.3215C8.2538 22.2058 8.00383 22.3307 7.87422 22.664C7.87422 22.664 7.57334 23.4648 7.50391 23.6546C7.67981 23.7194 8.31397 23.9601 8.48988 24.0249C8.55931 23.8352 8.86019 23.0343 8.86019 23.0343C8.89259 22.951 8.91574 22.8584 8.91574 22.7659C8.91574 22.59 8.83242 22.4187 8.56857 22.3215Z" fill="#B0B0B0"/>
<path d="M53.2285 22.3449C53.2285 22.4653 53.2563 22.5903 53.3118 22.7152C53.5618 23.2846 54.1589 23.4096 54.9505 23.0624C55.4088 22.8634 55.7143 22.5949 55.8346 22.294C55.9179 22.0857 55.9087 21.8589 55.8068 21.6274C55.5615 21.0627 54.9644 20.9377 54.1728 21.2849C53.5525 21.5534 53.2285 21.9283 53.2285 22.3449Z" fill="#B0B0B0"/>
<path d="M38.0876 9.22634C38.3514 9.06432 38.5412 8.75881 38.6431 8.32832C38.6847 8.15705 38.7032 7.99966 38.7032 7.85617C38.7032 7.62935 38.6523 7.43493 38.5551 7.27292C38.4024 7.02758 38.1339 6.85631 37.7543 6.76373C37.7543 6.76373 37.5321 6.70818 37.3932 6.67578C37.3423 6.89334 36.8331 9.01341 36.7822 9.23097C36.9211 9.26337 37.1433 9.31892 37.1433 9.31892C37.5229 9.40687 37.8376 9.37446 38.0876 9.22634Z" fill="#B0B0B0"/>
<path d="M22.7095 8.4391C22.7095 8.36966 22.691 8.30949 22.6725 8.26783C22.566 8.01786 22.3809 7.94843 22.1124 8.06415C22.1124 8.06415 21.4088 8.36504 21.2236 8.44373C21.2884 8.60111 21.469 9.01772 21.5338 9.1751C21.7837 9.06864 22.4225 8.80016 22.4225 8.80016C22.6494 8.69832 22.7095 8.55945 22.7095 8.4391Z" fill="#B0B0B0"/>
<path d="M32.0003 2.33789C15.6184 2.33789 2.33789 15.6184 2.33789 32.0003C2.33789 48.3822 15.6184 61.6626 32.0003 61.6626C48.3822 61.6626 61.6626 48.3822 61.6626 32.0003C61.6626 15.6184 48.3822 2.33789 32.0003 2.33789ZM58.7232 29.783L58.7418 30.6023L56.2329 32.2363C56.2329 32.2363 56.1357 32.2965 56.0709 32.3382C56.1727 32.3336 56.5523 32.3243 56.5523 32.3243L58.7788 32.278L58.7973 33.1251L54.4785 33.2131L54.46 32.4354L57.0337 30.7227C57.0337 30.7227 57.0939 30.681 57.1355 30.6579C57.0337 30.6625 56.6587 30.6718 56.6587 30.6718L54.4229 30.718L54.4044 29.8709L58.5983 29.783H58.7232ZM57.7882 24.631L57.9734 25.4781L55.5617 26.0058C55.1728 26.0891 54.9136 26.2372 54.7794 26.4455C54.6822 26.5983 54.659 26.7927 54.7053 27.0149C54.7609 27.2602 54.8581 27.4269 55.0155 27.5287C55.2099 27.6537 55.4969 27.6722 55.8626 27.5935L58.3159 27.0565L58.5011 27.9036L56.0616 28.4406C54.872 28.6998 54.0897 28.2601 53.8536 27.1954C53.6268 26.1678 54.173 25.4318 55.3534 25.1725L57.6586 24.668L57.7882 24.631ZM56.5939 21.2796C56.7883 21.724 56.8022 22.1822 56.6356 22.6081C56.4273 23.1358 55.9551 23.5848 55.2978 23.8718C54.6451 24.1588 53.9924 24.2051 53.4647 23.9968C53.0389 23.8302 52.7102 23.5061 52.5158 23.0664C52.3214 22.6266 52.3075 22.1684 52.4742 21.7471C52.6825 21.2194 53.1546 20.7704 53.8119 20.4834C55.034 19.9465 56.1495 20.2659 56.5939 21.2796ZM50.3541 18.3309C50.4606 17.7755 50.8448 17.2478 51.4373 16.845C52.539 16.0998 53.6962 16.2109 54.3165 17.1274C54.7053 17.7014 54.7562 18.2569 54.4692 18.8262L54.4137 18.9373L53.6036 18.5763L53.6545 18.4606C53.8073 18.1134 53.7888 17.9005 53.5944 17.6135C53.4555 17.4052 53.2703 17.2802 53.0528 17.2385C52.7334 17.1783 52.3445 17.2941 51.9279 17.5764C51.2151 18.0625 51.0021 18.6318 51.3401 19.1364C51.5437 19.4326 51.7752 19.5484 52.1501 19.5391L52.2797 19.5345L52.289 20.3908L52.1686 20.4001C51.5437 20.4418 50.9929 20.1686 50.6272 19.6224C50.3633 19.2197 50.2661 18.7753 50.3541 18.3309ZM49.5487 11.73C50.0671 12.1744 50.2661 12.7114 50.1458 13.327L50.1226 13.4474L49.2524 13.3132L49.2709 13.1882C49.3265 12.8179 49.2524 12.6188 48.9839 12.3874C48.7941 12.2253 48.5858 12.1467 48.359 12.1652C48.035 12.1883 47.6878 12.4059 47.3638 12.7855C47.0351 13.1697 46.8777 13.54 46.9009 13.864C46.9194 14.0862 47.0212 14.2852 47.2157 14.4472C47.4101 14.6139 47.6045 14.688 47.7943 14.6741C47.9933 14.6602 48.1322 14.5537 48.2433 14.4426C48.109 14.3269 47.7526 14.0214 47.7526 14.0214L48.3035 13.3826L49.47 14.3871L49.0811 14.8407C48.7247 15.2573 48.2942 15.498 47.8452 15.5304C47.424 15.5628 47.012 15.4147 46.6509 15.1046C46.2852 14.7898 46.0769 14.3871 46.0399 13.9334C45.9982 13.3687 46.2297 12.7577 46.6972 12.2161C47.1647 11.6745 47.7341 11.3505 48.2988 11.3042C48.7525 11.2718 49.183 11.4199 49.5487 11.73ZM43.8041 7.94819L44.517 8.35554L44.6327 11.3458C44.6327 11.3458 44.6327 11.4616 44.6373 11.5356C44.7299 11.369 44.8734 11.1144 44.8734 11.1144L45.9751 9.17949L46.7111 9.60073L44.5725 13.3548L43.8967 12.9706L43.7486 9.88309C43.7486 9.88309 43.7486 9.80903 43.7439 9.76274C43.656 9.92013 43.5125 10.1793 43.5125 10.1793L42.4062 12.1235L41.6702 11.7023L43.7486 8.05928L43.8041 7.94819ZM41.3508 7.08257L41.3971 6.96222L42.2025 7.27699L40.624 11.2996L39.8186 10.9848L41.3508 7.08257ZM36.7125 5.77258L36.7403 5.6476L37.9438 5.93459C39.2307 6.2401 39.8093 7.21219 39.4946 8.52681C39.1242 10.0775 37.93 10.3738 36.9394 10.1377L35.7358 9.85069L36.7125 5.77258ZM32.2456 5.37912L32.2549 5.24951L33.1205 5.30042C33.1205 5.30042 32.9353 8.52681 32.9214 8.76289C33.1482 8.77677 34.9443 8.87861 34.9443 8.87861L34.898 9.73034L32.0095 9.5637L32.2456 5.37912ZM30.5005 5.32357L30.6301 5.31431L30.9217 9.62387L30.0607 9.68405L29.7691 5.37449L30.5005 5.32357ZM25.6447 6.04106L26.1585 8.45275C26.302 9.1332 26.6399 9.42483 27.163 9.31373C27.5055 9.23967 27.936 9.036 27.7462 8.15649L27.2232 5.70314L27.9453 5.55039L28.0703 5.52261L28.5933 7.96671C28.7276 8.59161 28.6674 9.1008 28.4174 9.48963C28.1953 9.83218 27.8296 10.059 27.3343 10.1655C26.8575 10.2673 26.4455 10.2071 26.1076 9.98956C25.7188 9.73497 25.4503 9.28596 25.316 8.65179L24.7976 6.22159L25.6447 6.04106ZM21.798 7.31402C22.1776 7.15201 22.5387 7.12886 22.8396 7.24922C23.108 7.35568 23.321 7.5825 23.4552 7.89727C23.5154 8.03614 23.5432 8.17964 23.5432 8.31388C23.5432 8.48052 23.4413 8.62865 23.358 8.77677C23.7005 8.79529 24.094 8.96193 24.2977 9.44797C24.3903 9.66553 24.4365 9.86921 24.4365 10.0636C24.4365 10.2118 24.4088 10.3552 24.3579 10.4895C24.219 10.832 23.9088 11.1098 23.4413 11.3088L21.8397 11.9939L20.1455 8.01762L21.798 7.31402ZM14.6509 11.693L17.4746 12.6836C17.4746 12.6836 17.5811 12.7253 17.6551 12.753C17.5718 12.6466 17.3496 12.3781 17.3496 12.3781L15.9563 10.6422L16.5164 10.1886L16.6182 10.1099L19.3262 13.4798L18.7198 13.9658L15.7943 12.9706C15.7943 12.9706 15.7248 12.9475 15.6786 12.9289C15.7387 13.003 15.9794 13.2993 15.9794 13.2993L17.3774 15.0444L16.7154 15.5767L14.0075 12.2068L14.6509 11.693ZM12.6651 13.5492L12.7484 13.452L13.3918 14.0075C13.3918 14.0075 12.2253 15.3592 12.0819 15.5304C12.2068 15.6369 12.5216 15.91 12.6512 16.0211C12.7855 15.8683 13.415 15.137 13.415 15.137L14.0584 15.6924C14.0584 15.6924 13.4289 16.4238 13.2946 16.5766C13.4335 16.6969 13.9334 17.1274 14.0723 17.2478C14.2204 17.0765 15.4425 15.66 15.4425 15.66L16.0859 16.2155L14.151 18.4606L10.8737 15.6415L12.6651 13.5492ZM5.63371 27.4361C5.74943 26.7649 6.10586 26.3159 6.69837 26.103L6.81409 26.0613L7.14738 26.876L7.03166 26.9269C6.68911 27.0704 6.55024 27.2371 6.49007 27.5842C6.44841 27.8342 6.4947 28.0518 6.62431 28.2323C6.81409 28.4961 7.17515 28.6813 7.67045 28.7646C8.52218 28.9081 9.0684 28.6443 9.17024 28.0332C9.17949 27.9638 9.18875 27.899 9.18875 27.8388C9.18875 27.6722 9.14709 27.5333 9.0684 27.4222C8.95267 27.2602 8.79066 27.1954 8.6379 27.1537C8.61013 27.3296 8.53144 27.7925 8.53144 27.7925L7.69823 27.6537L7.95282 26.1354L8.54533 26.2372C9.08691 26.3298 9.51278 26.5705 9.772 26.9408C10.0173 27.2834 10.1053 27.7138 10.022 28.186C9.94327 28.6582 9.70257 29.047 9.33225 29.3108C8.86935 29.6395 8.22593 29.7552 7.52233 29.6349C6.81409 29.5145 6.24473 29.1951 5.91608 28.7322C5.7124 28.4452 5.60594 28.1119 5.60594 27.7601C5.60594 27.649 5.61519 27.5472 5.63371 27.4361ZM10.3691 37.4948C10.4478 37.8004 10.2534 38.129 9.94327 38.2077C9.63313 38.2864 9.30448 38.092 9.22578 37.7818C9.14709 37.4717 9.34614 37.1477 9.65628 37.069C9.96642 36.9949 10.2904 37.1893 10.3691 37.4948ZM9.69331 32.2086C9.69794 32.528 9.43409 32.8011 9.11469 32.8057C8.79529 32.8103 8.51755 32.5465 8.51292 32.2271C8.50829 31.9077 8.77677 31.6346 9.09617 31.6299C9.41557 31.6299 9.68868 31.8938 9.69331 32.2086ZM5.44392 35.3007C5.37912 34.7591 5.51336 34.2731 5.8559 33.8194L5.93459 33.7176L6.62431 34.2499L6.54099 34.3518C6.32805 34.6156 6.25399 34.8934 6.29565 35.2452C6.3188 35.4488 6.38823 35.6016 6.49007 35.6849L6.7354 35.7497C6.90204 35.7312 7.01777 35.6618 7.14738 34.8934C7.28162 34.1388 7.47141 33.4538 8.31851 33.3519C8.70271 33.3056 9.03137 33.3843 9.29059 33.588C9.60536 33.8333 9.79977 34.2453 9.86458 34.81C9.93864 35.4025 9.75348 35.9951 9.35539 36.4255L9.2767 36.5135L8.6055 35.9765L8.68882 35.8747C8.92953 35.5923 9.04988 35.2081 9.00822 34.8656C8.93416 34.2361 8.67494 34.1851 8.462 34.2129C8.25833 34.2361 8.13798 34.3795 8.013 35.1017C7.8695 35.9488 7.71211 36.5135 6.86964 36.6153C6.54562 36.657 6.2401 36.5737 5.99477 36.3793C5.69389 36.1386 5.49947 35.759 5.44392 35.3007ZM9.9155 42.0868L7.58713 42.9616L7.28162 42.1516L9.59147 41.286C9.96179 41.1471 10.1979 40.9666 10.2997 40.7444C10.3738 40.5777 10.3738 40.3833 10.2951 40.1704C10.1701 39.8417 9.91087 39.4483 9.06377 39.763L6.71226 40.6425L6.40675 39.8325L8.74437 38.953C9.88309 38.5271 10.7209 38.8511 11.1051 39.8741C11.4847 40.8555 11.045 41.6655 9.9155 42.0868ZM11.3088 23.4552C11.3088 23.4552 9.6609 23.6311 9.51741 23.6496C9.48038 23.7561 9.32762 24.1542 9.26744 24.3162C9.47112 24.3903 10.7765 24.8809 10.7765 24.8809L10.4756 25.6817L6.42526 24.1681L7.09646 22.3767C7.4066 21.5481 8.08243 21.2148 8.85547 21.5018C9.43871 21.7193 9.74886 22.1452 9.74886 22.7099V22.7331C10.0034 22.7053 11.6514 22.5294 11.6514 22.5294L11.3088 23.4552ZM8.38331 19.4743L9.79514 17.1182L9.85995 17.0071L10.5867 17.4422C10.5867 17.4422 9.67016 18.9744 9.55444 19.1642C9.69794 19.2475 10.0544 19.465 10.1979 19.5484C10.3043 19.3725 10.7996 18.5485 10.7996 18.5485L11.5264 18.9836C11.5264 18.9836 11.0311 19.8122 10.9246 19.9835C11.082 20.0761 11.6467 20.4186 11.8041 20.5112C11.9198 20.3168 12.8827 18.7105 12.8827 18.7105L13.6094 19.1456L12.0865 21.6869L8.38331 19.4743ZM21.2426 54.6637C20.8306 55.3626 20.2983 55.8163 19.7104 55.969C19.1919 56.1033 18.6272 56.0014 18.081 55.6774C17.544 55.358 17.1876 54.9136 17.0534 54.3905C17.0117 54.2332 16.9932 54.0665 16.9932 53.8952C16.9932 53.4323 17.1459 52.937 17.4422 52.4325C17.4422 52.4325 18.9512 49.8773 19.0392 49.8542C19.0392 49.8542 19.9511 50.3911 19.9742 50.4791L18.4698 53.0204C18.0578 53.7193 18.1319 54.3535 18.6735 54.6729C19.2151 54.9923 19.8076 54.7655 20.2196 54.0711C20.2196 54.0711 21.7286 51.516 21.8166 51.4928C21.8166 51.4928 22.7285 52.0298 22.747 52.1177L21.2426 54.6637ZM26.0011 55.2839C26.6168 55.6172 27.6398 56.1727 27.3065 57.3947C27.1769 57.8761 26.9223 58.2279 26.5612 58.4363C26.1122 58.6908 25.5105 58.7186 24.7791 58.5196C23.9088 58.2835 23.2469 57.7188 23.0386 56.9318C23.0386 56.9318 23.9551 56.4782 24.0385 56.506C24.256 56.9642 24.6263 57.2698 25.1448 57.4133C25.5012 57.5105 25.8021 57.5151 25.9086 57.4271C26.015 57.3392 26.0798 57.2651 26.103 57.1494C26.1307 57.029 26.1261 57.0568 26.1261 57.0105C26.1261 56.8115 25.9456 56.6217 25.1911 56.219C24.5338 55.8626 23.9088 55.4506 23.9088 54.6683C23.9088 54.5202 23.932 54.3628 23.9783 54.1869C24.0847 53.7934 24.3254 53.4833 24.668 53.2842C25.1031 53.0343 25.6956 52.9833 26.2881 53.1454C27.038 53.3537 27.5889 53.7888 27.9407 54.5711C27.9407 54.5711 27.0102 55.0849 26.9223 55.0571C26.677 54.6174 26.3668 54.3628 25.9456 54.247C25.529 54.1313 25.2374 54.21 25.1679 54.46C25.0985 54.7331 25.2374 54.872 26.0011 55.2839ZM34.0879 57.3438C34.0648 58.677 33.1945 59.5241 31.866 59.5009C30.4218 59.4778 29.5099 58.3668 29.533 56.6726C29.5608 55.0293 30.5699 53.8999 31.991 53.9184C33.0001 53.9369 33.6482 54.3813 33.9953 55.3997C33.9953 55.3997 32.9862 55.7977 32.9029 55.7653C32.7085 55.358 32.4817 55.108 31.9586 55.0988C31.2272 55.0895 30.769 55.6959 30.7504 56.6911C30.7412 57.2605 30.8893 57.7327 31.1763 58.0243C31.3707 58.228 31.6207 58.3344 31.9169 58.3344C32.5233 58.3437 32.8242 58.1215 32.9631 57.6771C32.9631 57.6771 32.1252 57.6632 32.0604 57.5984C32.0604 57.5984 32.0743 56.6078 32.1391 56.543C32.1391 56.543 34.037 56.5754 34.0972 56.6402L34.0879 57.3438ZM40.7351 57.5614C40.4898 57.978 40.0408 58.2789 39.4344 58.4363C39.4344 58.4363 37.1106 59.0426 37.0319 58.9964C37.0319 58.9964 35.7034 53.8767 35.7451 53.798L38.092 53.187C39.1474 52.9139 39.9158 53.2796 40.1426 54.1637C40.175 54.2794 40.1889 54.3952 40.1889 54.5063C40.1889 54.7979 40.0639 55.0571 39.8741 55.2839C40.3694 55.395 40.7351 55.7237 40.8647 56.2329C40.911 56.4227 40.9388 56.5986 40.9388 56.7698C40.9434 57.0615 40.874 57.3253 40.7351 57.5614ZM45.8594 55.8394C45.3039 56.1542 44.716 56.2375 44.1467 56.0801C43.4616 55.8903 42.8644 55.3719 42.4154 54.585C41.9849 53.8304 41.8553 53.0343 42.0497 52.3399C42.2117 51.752 42.5867 51.2799 43.1422 50.9651C43.943 50.5115 44.7484 50.5346 45.4844 51.1225C45.4844 51.1225 44.8549 52.002 44.7669 52.0205C44.4244 51.7983 44.0772 51.7891 43.7069 52.002C43.4477 52.1455 43.281 52.3584 43.207 52.6269C43.1005 53.0111 43.1977 53.4925 43.4755 53.9878C43.7486 54.4739 44.1189 54.7979 44.5077 54.909C44.7808 54.9877 45.0493 54.9506 45.3039 54.8071C45.6835 54.5942 45.827 54.3118 45.9057 53.7055C45.9057 53.7055 46.9425 53.724 47.0074 53.7841C47.0629 54.6822 46.6787 55.3765 45.8594 55.8394ZM32.0003 51.3215C21.3259 51.3215 12.679 42.67 12.679 32.0003C12.679 21.3305 21.3305 12.679 32.0003 12.679C42.67 12.679 51.3215 21.3305 51.3215 32.0003C51.3215 42.67 42.67 51.3215 32.0003 51.3215ZM56.5106 42.7811C56.5106 42.7811 53.5805 41.4248 53.3629 41.3276C53.2703 41.5313 52.5158 43.1699 52.5158 43.1699L51.7381 42.8135L52.8954 40.3046L52.9509 40.1889L56.8763 41.9988L56.5106 42.7811ZM57.4225 40.4111L53.2981 39.1196L53.5157 38.416L53.5527 38.2956L57.6771 39.5871L57.4225 40.4111ZM58.4316 36.6524C58.3159 37.3328 57.9687 37.7726 57.367 37.9855L57.2512 38.0272L56.9133 37.2078L57.029 37.1569C57.3762 37.0134 57.5151 36.8468 57.5753 36.5042C57.6169 36.2589 57.5706 36.0413 57.4457 35.8608C57.2559 35.597 56.8948 35.4118 56.3949 35.3285C55.5432 35.185 54.9969 35.4488 54.8951 36.0552C54.8349 36.407 54.9229 36.6524 55.2052 36.9023L55.3024 36.9903L54.7146 37.6152L54.622 37.5365C54.1406 37.1338 53.9323 36.5552 54.0434 35.9071C54.2285 34.8193 55.233 34.2361 56.543 34.4582C57.2466 34.5786 57.8206 34.898 58.1446 35.3609C58.4131 35.7312 58.5103 36.1802 58.4316 36.6524Z" fill="#B0B0B0"/>
<path d="M38.874 56.1304C38.874 56.1304 37.6843 56.4405 37.5732 56.4683C37.6149 56.6303 37.8325 57.4913 37.8325 57.6579C37.8325 57.6718 37.8278 57.6811 37.8232 57.6811C37.8325 57.6811 39.1795 57.3293 39.1795 57.3293C39.5359 57.2367 39.7211 57.0376 39.7211 56.7553C39.7211 56.6905 39.7118 56.621 39.6933 56.5516C39.5868 56.1443 39.3276 56.0146 38.874 56.1304Z" fill="#B0B0B0"/>
<path d="M38.5957 55.103C38.5957 55.103 38.9105 55.0012 38.9753 54.8716C39.0401 54.7373 38.9984 54.5522 38.9984 54.5522C38.9429 54.3392 38.8179 54.1448 38.3226 54.2698C38.3226 54.2698 37.1931 54.5614 37.082 54.5938C37.1191 54.7419 37.2579 55.2835 37.2579 55.427C37.2579 55.4455 37.2533 55.4548 37.2487 55.4548C37.2626 55.4502 38.5957 55.103 38.5957 55.103Z" fill="#B0B0B0"/>
<path d="M45.9981 36.3784C46.299 36.2349 49.9605 35.11 49.118 32.9251C48.5255 31.3883 47.3914 33.2075 46.5998 32.615C46.3452 32.4252 46.1879 32.2725 47.2988 31.1939C48.4144 30.1107 48.7523 29.3423 48.8634 28.6758C48.9745 28.0092 48.9745 27.5 48.5162 27.2454C48.058 26.9908 47.4562 27.6666 47.271 26.963C47.1599 26.5881 47.3034 26.3752 47.3034 25.6993C47.3081 24.9633 46.5489 23.121 44.7945 23.7413C43.6558 24.144 44.2622 26.1021 43.966 26.4724C43.6651 26.852 43.4105 25.6901 42.7717 25.5049C42.0357 25.2966 41.5219 25.9771 41.5265 26.6112C41.5311 27.2454 41.9431 28.4212 42.082 28.8748C42.156 29.2359 42.3551 30.2218 42.2301 30.5088C42.0403 30.944 41.8829 30.8005 41.4617 30.2496C41.0914 29.7589 41.2858 29.9626 40.6331 29.1803C39.8184 28.1758 39.3231 29.5692 39.2629 30.4996C39.2028 31.43 39.911 34.6656 39.8971 35.0961C39.8462 37.0357 38.7676 34.8138 38.7352 34.7582C38.027 33.6797 36.6661 34.1842 37.092 35.3415C37.8696 37.4523 38.564 39.2761 37.8326 41.086C37.7354 41.3267 37.6011 41.7526 37.4206 42.1692C43.4012 36.6005 45.0491 28.8841 45.0491 28.8748C45.0723 28.7961 45.2158 28.7174 45.2852 28.7406C45.3593 28.7637 45.3963 28.9118 45.3732 28.9952C45.3685 29.009 43.4197 40.4657 32.9907 46.3167C32.7592 46.4417 32.7315 46.3075 32.6898 46.0992C32.7407 44.2846 32.8148 43.0487 33.4906 42.6506C39.1056 39.3177 37.2817 37.7809 36.1199 37.5541C34.9534 37.3273 34.2914 35.4202 35.8977 34.5916C38.726 32.9992 40.1702 27.3241 36.6615 28.5647C36.3421 28.5924 34.0322 29.796 36.069 26.3104C37.9946 22.8248 37.4021 19.7234 35.4024 21.075C34.8793 21.4268 33.3934 23.0007 33.6897 20.7278C34.222 17.2793 33.3656 16.0526 32.3565 15.8258C32.3565 15.8258 32.2501 15.8073 32.1667 15.798L32.0742 15.8026V15.7934C32.014 15.7887 31.7918 15.8258 31.7918 15.8258C30.7781 16.0526 29.9263 17.2793 30.4587 20.7278C30.7549 23.0007 29.2736 21.4268 28.7506 21.075C26.7509 19.7234 26.1584 22.8248 28.084 26.3104C30.1207 29.7913 27.8109 28.5924 27.4869 28.5647C23.9735 27.3241 25.4223 33.0038 28.2506 34.5916C29.8569 35.4202 29.1903 37.3227 28.0285 37.5541C26.862 37.7809 25.0381 39.3131 30.6531 42.6506C31.3289 43.0533 31.4122 44.2939 31.4585 46.1131C31.4122 46.3167 31.3798 46.4371 31.153 46.3167C20.7101 40.475 18.7613 29.0183 18.7566 29.0044C18.7335 28.9257 18.7891 28.773 18.8631 28.7498C18.9372 28.7267 19.0529 28.8563 19.076 28.935C19.0807 28.9442 20.7286 36.6052 26.7092 42.1784C26.5287 41.7572 26.3944 41.336 26.2972 41.0953C25.5612 39.2853 26.2602 37.4615 27.0379 35.3507C27.4637 34.1935 26.1028 33.6889 25.3946 34.7675C25.3575 34.8184 24.279 37.0449 24.2327 35.1054C24.2188 34.6749 24.9271 31.4393 24.8669 30.5088C24.8067 29.5784 24.3114 28.1897 23.5013 29.1896C22.8486 29.9765 23.0431 29.7728 22.6727 30.2589C22.2515 30.8143 22.0941 30.9532 21.9043 30.5181C21.7794 30.2311 21.9784 29.2451 22.0525 28.8841C22.1867 28.4304 22.5987 27.25 22.6079 26.6205C22.6126 25.9863 22.0988 25.3059 21.3628 25.5142C20.724 25.6993 20.4694 26.8612 20.1685 26.4816C19.8769 26.1113 20.4786 24.1533 19.3399 23.7505C17.5809 23.1303 16.8264 24.9726 16.831 25.7086C16.831 26.3844 16.9745 26.5927 16.8634 26.9723C16.6829 27.6759 16.0765 26.9955 15.6228 27.2547C15.1646 27.5093 15.1646 28.0184 15.2757 28.685C15.3868 29.3516 15.7247 30.12 16.8403 31.2032C17.9558 32.2817 17.7938 32.4345 17.5392 32.6243C16.7477 33.2168 15.609 31.3976 15.0211 32.9344C14.1786 35.1193 17.8401 36.2441 18.141 36.3876C18.9233 36.7626 19.3584 37.6189 18.2845 37.3689C17.854 37.2671 17.1921 36.9523 16.6782 37.531C15.3127 39.0539 18.8677 41.7017 21.2285 42.1923C23.5893 42.683 25.7001 43.581 26.5935 43.9884C27.473 44.3865 31.2271 46.9602 31.4863 48.0063C31.5511 48.3118 31.7131 48.5386 32.0742 48.5386C32.4352 48.5386 32.5926 48.3396 32.6574 48.0248C32.8981 47.0018 36.6661 44.3865 37.5456 43.9884C38.4344 43.581 40.5498 42.683 42.9106 42.1923C45.2713 41.7017 48.8264 39.0539 47.4655 37.531C46.947 36.957 46.2897 37.2717 45.8592 37.3689C44.7807 37.6097 45.2111 36.7533 45.9981 36.3784ZM32.2778 47.2286C32.2778 47.2286 32.2547 47.4416 32.0881 47.4323C31.9214 47.4277 31.9307 47.2286 31.9307 47.2286C31.9307 47.2286 31.8103 39.8917 31.8103 34.8647C31.8103 29.8376 31.9307 24.3662 31.9307 24.3662C31.9307 24.3662 31.977 24.1579 32.1158 24.1579C32.2547 24.1579 32.2778 24.3662 32.2778 24.3662C32.2778 24.3662 32.3982 29.8423 32.3982 34.8647C32.3982 39.8871 32.2778 47.2286 32.2778 47.2286Z" fill="#B0B0B0"/>
<path d="M56.7047 54.6816C57.4222 54.6816 58.0378 55.2417 58.0378 55.9963C58.0378 56.76 57.4222 57.3201 56.7047 57.3201C55.978 57.3201 55.3623 56.76 55.3623 55.9963C55.3669 55.2417 55.9826 54.6816 56.7047 54.6816ZM56.7047 54.8992C56.0937 54.8992 55.6215 55.3714 55.6215 56.0009C55.6215 56.6443 56.0937 57.1072 56.7047 57.1072C57.3065 57.1072 57.7833 56.6443 57.7833 56.0009C57.7833 55.3714 57.3111 54.8992 56.7047 54.8992ZM56.427 56.7647H56.1909V55.2417H56.7741C57.1352 55.2417 57.3157 55.376 57.3157 55.6769C57.3157 55.95 57.1445 56.0657 56.9176 56.0981L57.3528 56.7647H57.0982L56.6908 56.1027H56.427V56.7647ZM56.427 55.9083H56.7047C56.9871 55.9083 57.0796 55.825 57.0796 55.6584C57.0796 55.5102 57.0102 55.4315 56.7417 55.4315H56.427V55.9083Z" fill="#B0B0B0"/>
</g>
</svg>
